<svg aria-hidden="true" style="position: absolute; width: 0; height: 0; overflow: hidden;" version="1.1" xmlns="http://www.w3.org/2000/svg" xmlns:xlink="http://www.w3.org/1999/xlink">
<defs>
<symbol id="icon-logo" viewBox="0 0 137 32">
<path fill="#fdf9f9" style="fill: var(--color1, #fdf9f9)" d="M0.287 25.469l8.072-18.286h5.094l8.098 18.286h-5.381l-6.322-15.752h2.038l-6.322 15.752h-5.277zM4.702 21.917l1.332-3.814h8.934l1.332 3.814h-11.598zM25.107 25.469v-18.286h5.172v14.184h8.725v4.101h-13.897zM47.764 21.42l-0.287-5.799 7.863-8.438h5.695l-7.837 8.49-2.873 3.004-2.56 2.743zM43.141 25.469v-18.286h5.12v18.286h-5.12zM55.418 25.469l-5.956-7.549 3.37-3.605 8.594 11.154h-6.008z"></path>
<path fill="none" stroke="#fdf9f9" style="stroke: var(--color1, #fdf9f9)" stroke-linejoin="miter" stroke-linecap="butt" stroke-miterlimit="4" stroke-width="0.9796" d="M68.408 2.939v26.122"></path>
<path fill="#fdf9f9" style="fill: var(--color1, #fdf9f9)" d="M76.204 12.635v7.283h-0.951v-7.283h0.951zM82.308 12.635v0.773h-1.985v6.51h-0.951v-6.51h-1.996v-0.773h4.932zM85.908 17.045c0-0.592 0.119-1.108 0.355-1.546 0.237-0.446 0.564-0.791 0.982-1.034 0.425-0.244 0.909-0.366 1.452-0.366 0.704 0 1.282 0.171 1.735 0.512 0.46 0.341 0.763 0.815 0.909 1.421h-1.024c-0.097-0.348-0.289-0.623-0.575-0.825-0.278-0.202-0.627-0.303-1.045-0.303-0.543 0-0.982 0.188-1.317 0.564-0.334 0.369-0.502 0.895-0.502 1.578 0 0.69 0.167 1.223 0.502 1.599s0.773 0.564 1.317 0.564c0.418 0 0.767-0.098 1.045-0.293s0.47-0.474 0.575-0.836h1.024c-0.153 0.585-0.46 1.055-0.919 1.411-0.46 0.348-1.034 0.522-1.724 0.522-0.543 0-1.027-0.122-1.452-0.366-0.418-0.244-0.745-0.589-0.982-1.034s-0.355-0.968-0.355-1.567zM95.108 20.012c-0.536 0-1.024-0.122-1.463-0.366-0.432-0.244-0.773-0.589-1.024-1.034-0.244-0.453-0.366-0.975-0.366-1.567 0-0.585 0.125-1.101 0.376-1.546 0.258-0.453 0.606-0.798 1.045-1.034 0.439-0.244 0.93-0.366 1.473-0.366s1.034 0.122 1.473 0.366c0.439 0.237 0.784 0.578 1.034 1.024 0.258 0.446 0.387 0.965 0.387 1.557s-0.133 1.115-0.397 1.567c-0.258 0.446-0.609 0.791-1.055 1.034s-0.94 0.366-1.484 0.366zM95.108 19.177c0.342 0 0.662-0.080 0.961-0.24s0.54-0.401 0.721-0.721c0.188-0.32 0.282-0.711 0.282-1.17s-0.091-0.85-0.272-1.17c-0.181-0.32-0.418-0.557-0.711-0.711-0.293-0.16-0.609-0.24-0.951-0.24-0.348 0-0.669 0.080-0.961 0.24-0.285 0.153-0.515 0.39-0.69 0.711s-0.261 0.711-0.261 1.17c0 0.467 0.084 0.86 0.251 1.181 0.174 0.32 0.404 0.561 0.69 0.721 0.285 0.153 0.599 0.23 0.94 0.23zM106.181 14.088c0.445 0 0.842 0.094 1.191 0.282 0.348 0.181 0.623 0.456 0.825 0.825s0.303 0.818 0.303 1.348v3.375h-0.94v-3.239c0-0.571-0.143-1.007-0.428-1.306-0.279-0.306-0.658-0.46-1.139-0.46-0.495 0-0.888 0.16-1.181 0.481-0.293 0.313-0.439 0.77-0.439 1.369v3.156h-0.94v-3.239c0-0.571-0.143-1.007-0.428-1.306-0.279-0.306-0.658-0.46-1.139-0.46-0.495 0-0.888 0.16-1.181 0.481-0.293 0.313-0.439 0.77-0.439 1.369v3.156h-0.951v-5.726h0.951v0.825c0.188-0.3 0.439-0.529 0.752-0.69 0.32-0.16 0.672-0.24 1.055-0.24 0.481 0 0.905 0.108 1.275 0.324s0.644 0.533 0.825 0.951c0.16-0.404 0.424-0.718 0.794-0.94s0.78-0.334 1.233-0.334zM111.011 15.248c0.188-0.327 0.467-0.599 0.836-0.815 0.376-0.223 0.812-0.334 1.306-0.334 0.509 0 0.969 0.122 1.379 0.366 0.418 0.244 0.745 0.589 0.982 1.034 0.237 0.439 0.355 0.951 0.355 1.536 0 0.578-0.118 1.094-0.355 1.546s-0.564 0.805-0.982 1.055c-0.411 0.251-0.871 0.376-1.379 0.376-0.488 0-0.919-0.108-1.296-0.324-0.369-0.223-0.651-0.498-0.846-0.825v3.772h-0.951v-8.443h0.951v1.055zM114.898 17.034c0-0.432-0.087-0.808-0.261-1.129s-0.411-0.564-0.711-0.731c-0.293-0.167-0.617-0.251-0.972-0.251-0.348 0-0.672 0.087-0.972 0.261-0.293 0.167-0.53 0.415-0.711 0.742-0.174 0.32-0.261 0.693-0.261 1.118 0 0.432 0.087 0.812 0.261 1.139 0.181 0.32 0.418 0.568 0.711 0.742 0.3 0.167 0.624 0.251 0.972 0.251 0.355 0 0.679-0.084 0.972-0.251 0.3-0.174 0.536-0.421 0.711-0.742 0.174-0.327 0.261-0.711 0.261-1.149zM116.765 17.034c0-0.585 0.119-1.097 0.355-1.536 0.237-0.446 0.561-0.791 0.972-1.034 0.418-0.244 0.882-0.366 1.39-0.366 0.502 0 0.937 0.108 1.306 0.324s0.645 0.488 0.825 0.815v-1.045h0.961v5.726h-0.961v-1.066c-0.188 0.334-0.47 0.613-0.846 0.836-0.369 0.216-0.801 0.324-1.296 0.324-0.508 0-0.968-0.125-1.379-0.376s-0.735-0.603-0.972-1.055c-0.236-0.453-0.355-0.968-0.355-1.546zM121.614 17.045c0-0.432-0.087-0.808-0.261-1.129s-0.411-0.564-0.711-0.731c-0.293-0.174-0.617-0.261-0.972-0.261s-0.679 0.084-0.972 0.251c-0.293 0.167-0.526 0.411-0.7 0.731s-0.261 0.697-0.261 1.128c0 0.439 0.088 0.822 0.261 1.149 0.174 0.32 0.407 0.568 0.7 0.742 0.293 0.167 0.617 0.251 0.972 0.251s0.679-0.084 0.972-0.251c0.3-0.174 0.537-0.421 0.711-0.742 0.174-0.327 0.261-0.707 0.261-1.139zM126.972 14.088c0.697 0 1.261 0.212 1.693 0.637 0.432 0.418 0.648 1.024 0.648 1.818v3.375h-0.94v-3.239c0-0.571-0.143-1.007-0.428-1.306-0.285-0.306-0.676-0.46-1.17-0.46-0.502 0-0.902 0.157-1.202 0.47-0.293 0.313-0.439 0.77-0.439 1.369v3.166h-0.951v-5.726h0.951v0.815c0.188-0.293 0.442-0.519 0.763-0.679 0.327-0.16 0.686-0.24 1.076-0.24zM135.798 14.192l-3.448 8.422h-0.982l1.129-2.759-2.309-5.663h1.055l1.797 4.639 1.776-4.639h0.982z"></path>
</symbol>
<symbol id="icon-gmail" viewBox="0 0 36 32">
<path fill="#fdf9f9" style="fill: var(--color1, #fdf9f9)" d="M31.135 8.224v15.856c0 0.9-0.701 1.586-1.622 1.586h-1.622v-14.39l-9.73 6.834-9.73-6.834v14.39h-1.622c-0.92 0-1.622-0.686-1.622-1.586v-15.856c0-0.45 0.174-0.847 0.465-1.127 0.152-0.148 0.332-0.265 0.531-0.344s0.412-0.118 0.626-0.114h0.541l10.811 7.664 10.811-7.664h0.541c0.461 0 0.866 0.17 1.157 0.458 0.291 0.281 0.465 0.677 0.465 1.127z"></path>
</symbol>
<symbol id="icon-behance" viewBox="0 0 35 32">
<path fill="#fdf9f9" style="fill: var(--color1, #fdf9f9)" d="M11.51 7.071c0.798 0 1.537 0.065 2.212 0.257 0.676 0.128 1.229 0.385 1.72 0.706 0.492 0.322 0.861 0.771 1.106 1.348 0.246 0.577 0.37 1.284 0.37 2.054 0 0.899-0.185 1.668-0.615 2.246-0.369 0.579-0.983 1.091-1.721 1.476 1.045 0.322 1.843 0.899 2.335 1.67 0.491 0.769 0.798 1.732 0.798 2.823 0 0.899-0.185 1.668-0.492 2.31-0.306 0.642-0.798 1.219-1.352 1.605-0.601 0.413-1.266 0.717-1.965 0.898-0.737 0.193-1.474 0.322-2.212 0.322h-8.235v-17.713h8.050zM11.017 14.258c0.676 0 1.229-0.192 1.659-0.512s0.615-0.899 0.615-1.605c0-0.385-0.062-0.769-0.185-1.026s-0.307-0.45-0.552-0.642c-0.246-0.128-0.492-0.257-0.8-0.32-0.307-0.065-0.613-0.065-0.983-0.065h-3.563v4.172l3.81-0.001zM11.202 21.832c0.369 0 0.737-0.065 1.044-0.128 0.307-0.065 0.615-0.192 0.86-0.385 0.25-0.188 0.46-0.428 0.615-0.706 0.122-0.32 0.246-0.706 0.246-1.154 0-0.899-0.246-1.541-0.737-1.99-0.492-0.385-1.168-0.577-1.967-0.577h-4.056v4.943l3.995-0.001zM23.062 21.767c0.491 0.514 1.228 0.771 2.212 0.771 0.676 0 1.291-0.192 1.782-0.512 0.492-0.385 0.8-0.77 0.922-1.154h3.011c-0.492 1.538-1.23 2.63-2.212 3.337-0.985 0.641-2.152 1.026-3.565 1.026-0.904 0.003-1.801-0.171-2.643-0.514-0.758-0.295-1.433-0.78-1.967-1.411-0.571-0.591-0.992-1.318-1.228-2.119-0.307-0.834-0.431-1.732-0.431-2.759 0-0.963 0.124-1.86 0.431-2.696 0.296-0.804 0.734-1.543 1.291-2.181 0.561-0.598 1.229-1.078 1.965-1.413 0.82-0.342 1.697-0.517 2.581-0.514 1.044 0 1.967 0.193 2.765 0.642 0.8 0.449 1.413 0.963 1.904 1.733 0.492 0.706 0.862 1.54 1.107 2.439 0.122 0.898 0.184 1.797 0.122 2.823h-8.91c0 1.027 0.369 1.99 0.861 2.504v-0.001zM26.933 15.029c-0.43-0.449-1.106-0.706-1.905-0.706-0.552 0-0.983 0.13-1.352 0.322s-0.613 0.449-0.86 0.706c-0.227 0.248-0.377 0.561-0.431 0.898-0.061 0.322-0.122 0.579-0.122 0.834h5.53c-0.122-0.963-0.43-1.603-0.86-2.054zM21.525 8.29h6.882v1.733h-6.881v-1.733h-0.001z"></path>
</symbol>
<symbol id="icon-instagram" viewBox="0 0 31 32">
<path fill="#fdf9f9" style="fill: var(--color1, #fdf9f9)" d="M10.482 4.044h10.171c3.875 0 7.023 3.148 7.023 7.023v10.171c0 1.863-0.74 3.649-2.057 4.966s-3.103 2.057-4.966 2.057h-10.171c-3.875 0-7.023-3.148-7.023-7.023v-10.171c0-1.863 0.74-3.649 2.057-4.966s3.103-2.057 4.966-2.057zM10.24 6.466c-1.156 0-2.265 0.459-3.082 1.277s-1.277 1.926-1.277 3.082v10.655c0 2.41 1.949 4.359 4.359 4.359h10.655c1.156 0 2.265-0.459 3.082-1.277s1.277-1.926 1.277-3.082v-10.655c0-2.41-1.949-4.359-4.359-4.359h-10.655zM21.924 8.282c0.401 0 0.786 0.159 1.070 0.443s0.443 0.669 0.443 1.070-0.159 0.786-0.443 1.070c-0.284 0.284-0.669 0.443-1.070 0.443s-0.786-0.159-1.070-0.443c-0.284-0.284-0.443-0.669-0.443-1.070s0.159-0.786 0.443-1.070c0.284-0.284 0.669-0.443 1.070-0.443zM15.568 10.098c1.606 0 3.146 0.638 4.281 1.773s1.773 2.675 1.773 4.281-0.638 3.145-1.773 4.281c-1.135 1.135-2.675 1.773-4.281 1.773s-3.146-0.638-4.281-1.773c-1.135-1.135-1.773-2.675-1.773-4.281s0.638-3.146 1.773-4.281c1.135-1.135 2.675-1.773 4.281-1.773zM15.568 12.52c-0.963 0-1.887 0.383-2.568 1.064s-1.064 1.605-1.064 2.569 0.383 1.887 1.064 2.568c0.681 0.681 1.605 1.064 2.568 1.064s1.887-0.383 2.568-1.064c0.681-0.681 1.064-1.605 1.064-2.568s-0.383-1.887-1.064-2.569c-0.681-0.681-1.605-1.064-2.568-1.064z"></path>
</symbol>
<symbol id="icon-linkedin" viewBox="0 0 32 32">
<path fill="#fdf9f9" style="fill: var(--color1, #fdf9f9)" d="M8.521 6.38c-0 0.707-0.286 1.385-0.793 1.885s-1.196 0.78-1.913 0.78c-0.717-0-1.405-0.282-1.912-0.782s-0.792-1.179-0.791-1.886c0-0.707 0.286-1.385 0.793-1.885s1.196-0.78 1.913-0.78c0.717 0 1.405 0.282 1.912 0.782s0.792 1.179 0.791 1.886zM8.602 11.019h-5.41v16.692h5.41v-16.692zM17.15 11.019h-5.383v16.692h5.329v-8.76c0-4.88 6.451-5.333 6.451 0v8.76h5.342v-10.573c0-8.226-9.548-7.92-11.793-3.88l0.054-2.24z"></path>
</symbol>
<symbol id="icon-arrow-top" viewBox="0 0 32 32">
<path fill="#0f33ef" style="fill: var(--color2, #0f33ef)" d="M31.989 2.043c0-0.884-0.716-1.6-1.6-1.6h-14.4c-0.884 0-1.6 0.716-1.6 1.6s0.716 1.6 1.6 1.6h12.8v12.8c0 0.884 0.716 1.6 1.6 1.6s1.6-0.716 1.6-1.6v-14.4zM29.257 0.911l-28.779 28.779 2.263 2.263 28.779-28.779-2.263-2.263z"></path>
</symbol>
<symbol id="icon-snowflake2" viewBox="0 0 30 32">
<path fill="none" stroke="#0f33ef" style="stroke: var(--color2, #0f33ef)" stroke-linejoin="miter" stroke-linecap="butt" stroke-miterlimit="4" stroke-width="4" d="M14.411 31.87v-31.87"></path>
<path fill="none" stroke="#0f33ef" style="stroke: var(--color2, #0f33ef)" stroke-linejoin="miter" stroke-linecap="butt" stroke-miterlimit="4" stroke-width="4" d="M1 7.385l27.463 15.856"></path>
<path fill="none" stroke="#0f33ef" style="stroke: var(--color2, #0f33ef)" stroke-linejoin="miter" stroke-linecap="butt" stroke-miterlimit="4" stroke-width="4" d="M1.537 23.241l27.463-15.856"></path>
</symbol>
<symbol id="icon-snowflake1" viewBox="0 0 30 32">
<path fill="none" stroke="#0f33ef" style="stroke: var(--color2, #0f33ef)" stroke-linejoin="miter" stroke-linecap="butt" stroke-miterlimit="4" stroke-width="3.6090" d="M14.647 31.95v-31.95"></path>
<path fill="none" stroke="#0f33ef" style="stroke: var(--color2, #0f33ef)" stroke-linejoin="miter" stroke-linecap="butt" stroke-miterlimit="4" stroke-width="3.6090" d="M0.902 7.577l27.532 15.896"></path>
<path fill="none" stroke="#0f33ef" style="stroke: var(--color2, #0f33ef)" stroke-linejoin="miter" stroke-linecap="butt" stroke-miterlimit="4" stroke-width="3.6090" d="M1.641 23.473l27.532-15.896"></path>
</symbol>
<symbol id="icon-burger-menu" viewBox="0 0 51 32">
<path fill="#fdf9f9" style="fill: var(--color1, #fdf9f9)" d="M2.56 2.56h28.16v2.56h-28.16v-2.56z"></path>
<path fill="#fdf9f9" style="fill: var(--color1, #fdf9f9)" d="M2.56 14.080h44.8v3.2h-44.8v-3.2z"></path>
<path fill="#fdf9f9" style="fill: var(--color1, #fdf9f9)" d="M2.56 26.24h36.48v2.56h-36.48v-2.56z"></path>
</symbol>
<symbol id="icon-line-decor" viewBox="0 0 6 32">
<path fill="#fdf9f9" style="fill: var(--color1, #fdf9f9)" d="M2.8 0c1.546 0 2.8 1.254 2.8 2.8v26.4c0 1.546-1.254 2.8-2.8 2.8s-2.8-1.254-2.8-2.8v-26.4c0-1.546 1.254-2.8 2.8-2.8z"></path>
</symbol>
</defs>
</svg>
