<svg width="209" height="49" viewBox="0 0 209 49" fill="none" xmlns="http://www.w3.org/2000/svg">
<path d="M0.44 39L12.8 11H20.6L33 39H24.76L15.08 14.88H18.2L8.52 39H0.44ZM7.2 33.56L9.24 27.72H22.92L24.96 33.56H7.2ZM38.4453 39V11H46.3653V32.72H59.7253V39H38.4453ZM73.1394 32.8L72.6994 23.92L84.7394 11H93.4594L81.4594 24L77.0594 28.6L73.1394 32.8ZM66.0594 39V11H73.8994V39H66.0594ZM84.8594 39L75.7394 27.44L80.8994 21.92L94.0594 39H84.8594Z" fill="#FDF9F9"/>
<line x1="104.75" y1="4.5" x2="104.75" y2="44.5" stroke="#FDF9F9" stroke-width="1.5"/>
<path d="M116.688 19.348V30.5H115.232V19.348H116.688ZM126.034 19.348V20.532H122.994V30.5H121.538V20.532H118.482V19.348H126.034ZM131.547 26.1C131.547 25.1933 131.729 24.404 132.091 23.732C132.454 23.0493 132.955 22.5213 133.595 22.148C134.246 21.7747 134.987 21.588 135.819 21.588C136.897 21.588 137.782 21.8493 138.475 22.372C139.179 22.8947 139.643 23.62 139.867 24.548H138.299C138.15 24.0147 137.857 23.5933 137.419 23.284C136.993 22.9747 136.459 22.82 135.819 22.82C134.987 22.82 134.315 23.108 133.803 23.684C133.291 24.2493 133.035 25.0547 133.035 26.1C133.035 27.156 133.291 27.972 133.803 28.548C134.315 29.124 134.987 29.412 135.819 29.412C136.459 29.412 136.993 29.2627 137.419 28.964C137.846 28.6653 138.139 28.2387 138.299 27.684H139.867C139.633 28.58 139.163 29.3 138.459 29.844C137.755 30.3773 136.875 30.644 135.819 30.644C134.987 30.644 134.246 30.4573 133.595 30.084C132.955 29.7107 132.454 29.1827 132.091 28.5C131.729 27.8173 131.547 27.0173 131.547 26.1ZM145.634 30.644C144.813 30.644 144.066 30.4573 143.394 30.084C142.733 29.7107 142.21 29.1827 141.826 28.5C141.453 27.8067 141.266 27.0067 141.266 26.1C141.266 25.204 141.458 24.4147 141.842 23.732C142.237 23.0387 142.77 22.5107 143.442 22.148C144.114 21.7747 144.866 21.588 145.698 21.588C146.53 21.588 147.282 21.7747 147.954 22.148C148.626 22.5107 149.154 23.0333 149.538 23.716C149.933 24.3987 150.13 25.1933 150.13 26.1C150.13 27.0067 149.927 27.8067 149.522 28.5C149.127 29.1827 148.589 29.7107 147.906 30.084C147.223 30.4573 146.466 30.644 145.634 30.644ZM145.634 29.364C146.157 29.364 146.647 29.2413 147.106 28.996C147.565 28.7507 147.933 28.3827 148.21 27.892C148.498 27.4013 148.642 26.804 148.642 26.1C148.642 25.396 148.503 24.7987 148.226 24.308C147.949 23.8173 147.586 23.4547 147.138 23.22C146.69 22.9747 146.205 22.852 145.682 22.852C145.149 22.852 144.658 22.9747 144.21 23.22C143.773 23.4547 143.421 23.8173 143.154 24.308C142.887 24.7987 142.754 25.396 142.754 26.1C142.754 26.8147 142.882 27.4173 143.138 27.908C143.405 28.3987 143.757 28.7667 144.194 29.012C144.631 29.2467 145.111 29.364 145.634 29.364ZM162.589 21.572C163.271 21.572 163.879 21.716 164.413 22.004C164.946 22.2813 165.367 22.7027 165.677 23.268C165.986 23.8333 166.141 24.5213 166.141 25.332V30.5H164.701V25.54C164.701 24.6653 164.482 23.9987 164.045 23.54C163.618 23.0707 163.037 22.836 162.301 22.836C161.543 22.836 160.941 23.0813 160.493 23.572C160.045 24.052 159.821 24.7507 159.821 25.668V30.5H158.381V25.54C158.381 24.6653 158.162 23.9987 157.725 23.54C157.298 23.0707 156.717 22.836 155.981 22.836C155.223 22.836 154.621 23.0813 154.173 23.572C153.725 24.052 153.501 24.7507 153.501 25.668V30.5H152.045V21.732H153.501V22.996C153.789 22.5373 154.173 22.1853 154.653 21.94C155.143 21.6947 155.682 21.572 156.269 21.572C157.005 21.572 157.655 21.7373 158.221 22.068C158.786 22.3987 159.207 22.884 159.485 23.524C159.73 22.9053 160.135 22.4253 160.701 22.084C161.266 21.7427 161.895 21.572 162.589 21.572ZM169.985 23.348C170.273 22.8467 170.7 22.4307 171.265 22.1C171.841 21.7587 172.508 21.588 173.265 21.588C174.044 21.588 174.748 21.7747 175.377 22.148C176.017 22.5213 176.518 23.0493 176.881 23.732C177.244 24.404 177.425 25.188 177.425 26.084C177.425 26.9693 177.244 27.7587 176.881 28.452C176.518 29.1453 176.017 29.684 175.377 30.068C174.748 30.452 174.044 30.644 173.265 30.644C172.518 30.644 171.857 30.4787 171.281 30.148C170.716 29.8067 170.284 29.3853 169.985 28.884V34.66H168.529V21.732H169.985V23.348ZM175.937 26.084C175.937 25.4227 175.804 24.8467 175.537 24.356C175.27 23.8653 174.908 23.492 174.449 23.236C174.001 22.98 173.505 22.852 172.961 22.852C172.428 22.852 171.932 22.9853 171.473 23.252C171.025 23.508 170.662 23.8867 170.385 24.388C170.118 24.8787 169.985 25.4493 169.985 26.1C169.985 26.7613 170.118 27.3427 170.385 27.844C170.662 28.3347 171.025 28.7133 171.473 28.98C171.932 29.236 172.428 29.364 172.961 29.364C173.505 29.364 174.001 29.236 174.449 28.98C174.908 28.7133 175.27 28.3347 175.537 27.844C175.804 27.3427 175.937 26.756 175.937 26.084ZM178.797 26.084C178.797 25.188 178.979 24.404 179.341 23.732C179.704 23.0493 180.2 22.5213 180.829 22.148C181.469 21.7747 182.179 21.588 182.957 21.588C183.725 21.588 184.392 21.7533 184.957 22.084C185.523 22.4147 185.944 22.8307 186.221 23.332V21.732H187.693V30.5H186.221V28.868C185.933 29.38 185.501 29.8067 184.925 30.148C184.36 30.4787 183.699 30.644 182.941 30.644C182.163 30.644 181.459 30.452 180.829 30.068C180.2 29.684 179.704 29.1453 179.341 28.452C178.979 27.7587 178.797 26.9693 178.797 26.084ZM186.221 26.1C186.221 25.4387 186.088 24.8627 185.821 24.372C185.555 23.8813 185.192 23.508 184.733 23.252C184.285 22.9853 183.789 22.852 183.245 22.852C182.701 22.852 182.205 22.98 181.757 23.236C181.309 23.492 180.952 23.8653 180.685 24.356C180.419 24.8467 180.285 25.4227 180.285 26.084C180.285 26.756 180.419 27.3427 180.685 27.844C180.952 28.3347 181.309 28.7133 181.757 28.98C182.205 29.236 182.701 29.364 183.245 29.364C183.789 29.364 184.285 29.236 184.733 28.98C185.192 28.7133 185.555 28.3347 185.821 27.844C186.088 27.3427 186.221 26.7613 186.221 26.1ZM194.426 21.572C195.493 21.572 196.357 21.8973 197.018 22.548C197.679 23.188 198.01 24.116 198.01 25.332V30.5H196.57V25.54C196.57 24.6653 196.351 23.9987 195.914 23.54C195.477 23.0707 194.879 22.836 194.122 22.836C193.354 22.836 192.741 23.076 192.282 23.556C191.834 24.036 191.61 24.7347 191.61 25.652V30.5H190.154V21.732H191.61V22.98C191.898 22.532 192.287 22.1853 192.778 21.94C193.279 21.6947 193.829 21.572 194.426 21.572ZM207.94 21.732L202.66 34.628H201.156L202.884 30.404L199.348 21.732H200.964L203.716 28.836L206.436 21.732H207.94Z" fill="#FDF9F9"/>
</svg>
