<svg width="301" height="78" viewBox="0 0 301 78" fill="none" xmlns="http://www.w3.org/2000/svg">
<path d="M0.104 62L19.88 17.2H32.36L52.2 62H39.016L23.528 23.408H28.52L13.032 62H0.104ZM10.92 53.296L14.184 43.952H36.072L39.336 53.296H10.92ZM60.9125 62V17.2H73.5845V51.952H94.9605V62H60.9125ZM116.423 52.08L115.719 37.872L134.983 17.2H148.935L129.735 38L122.695 45.36L116.423 52.08ZM105.095 62V17.2H117.639V62H105.095ZM135.175 62L120.583 43.504L128.839 34.672L149.895 62H135.175Z" fill="#FDF9F9"/>
<line x1="165.75" y1="5.5" x2="165.75" y2="72.5" stroke="#FDF9F9" stroke-width="1.5"/>
<path d="M184.36 32.06V46H182.54V32.06H184.36ZM196.042 32.06V33.54H192.242V46H190.422V33.54H186.602V32.06H196.042ZM202.934 40.5C202.934 39.3667 203.161 38.38 203.614 37.54C204.068 36.6867 204.694 36.0267 205.494 35.56C206.308 35.0933 207.234 34.86 208.274 34.86C209.621 34.86 210.728 35.1867 211.594 35.84C212.474 36.4933 213.054 37.4 213.334 38.56H211.374C211.188 37.8933 210.821 37.3667 210.274 36.98C209.741 36.5933 209.074 36.4 208.274 36.4C207.234 36.4 206.394 36.76 205.754 37.48C205.114 38.1867 204.794 39.1933 204.794 40.5C204.794 41.82 205.114 42.84 205.754 43.56C206.394 44.28 207.234 44.64 208.274 44.64C209.074 44.64 209.741 44.4533 210.274 44.08C210.808 43.7067 211.174 43.1733 211.374 42.48H213.334C213.041 43.6 212.454 44.5 211.574 45.18C210.694 45.8467 209.594 46.18 208.274 46.18C207.234 46.18 206.308 45.9467 205.494 45.48C204.694 45.0133 204.068 44.3533 203.614 43.5C203.161 42.6467 202.934 41.6467 202.934 40.5ZM220.543 46.18C219.516 46.18 218.583 45.9467 217.743 45.48C216.916 45.0133 216.263 44.3533 215.783 43.5C215.316 42.6333 215.083 41.6333 215.083 40.5C215.083 39.38 215.323 38.3933 215.803 37.54C216.296 36.6733 216.963 36.0133 217.803 35.56C218.643 35.0933 219.583 34.86 220.623 34.86C221.663 34.86 222.603 35.0933 223.443 35.56C224.283 36.0133 224.943 36.6667 225.423 37.52C225.916 38.3733 226.163 39.3667 226.163 40.5C226.163 41.6333 225.909 42.6333 225.403 43.5C224.909 44.3533 224.236 45.0133 223.383 45.48C222.529 45.9467 221.583 46.18 220.543 46.18ZM220.543 44.58C221.196 44.58 221.809 44.4267 222.383 44.12C222.956 43.8133 223.416 43.3533 223.763 42.74C224.123 42.1267 224.303 41.38 224.303 40.5C224.303 39.62 224.129 38.8733 223.783 38.26C223.436 37.6467 222.983 37.1933 222.423 36.9C221.863 36.5933 221.256 36.44 220.603 36.44C219.936 36.44 219.323 36.5933 218.763 36.9C218.216 37.1933 217.776 37.6467 217.443 38.26C217.109 38.8733 216.943 39.62 216.943 40.5C216.943 41.3933 217.103 42.1467 217.423 42.76C217.756 43.3733 218.196 43.8333 218.743 44.14C219.289 44.4333 219.889 44.58 220.543 44.58ZM241.736 34.84C242.589 34.84 243.349 35.02 244.016 35.38C244.682 35.7267 245.209 36.2533 245.596 36.96C245.982 37.6667 246.176 38.5267 246.176 39.54V46H244.376V39.8C244.376 38.7067 244.102 37.8733 243.556 37.3C243.022 36.7133 242.296 36.42 241.376 36.42C240.429 36.42 239.676 36.7267 239.116 37.34C238.556 37.94 238.276 38.8133 238.276 39.96V46H236.476V39.8C236.476 38.7067 236.202 37.8733 235.656 37.3C235.122 36.7133 234.396 36.42 233.476 36.42C232.529 36.42 231.776 36.7267 231.216 37.34C230.656 37.94 230.376 38.8133 230.376 39.96V46H228.556V35.04H230.376V36.62C230.736 36.0467 231.216 35.6067 231.816 35.3C232.429 34.9933 233.102 34.84 233.836 34.84C234.756 34.84 235.569 35.0467 236.276 35.46C236.982 35.8733 237.509 36.48 237.856 37.28C238.162 36.5067 238.669 35.9067 239.376 35.48C240.082 35.0533 240.869 34.84 241.736 34.84ZM250.981 37.06C251.341 36.4333 251.874 35.9133 252.581 35.5C253.301 35.0733 254.134 34.86 255.081 34.86C256.054 34.86 256.934 35.0933 257.721 35.56C258.521 36.0267 259.148 36.6867 259.601 37.54C260.054 38.38 260.281 39.36 260.281 40.48C260.281 41.5867 260.054 42.5733 259.601 43.44C259.148 44.3067 258.521 44.98 257.721 45.46C256.934 45.94 256.054 46.18 255.081 46.18C254.148 46.18 253.321 45.9733 252.601 45.56C251.894 45.1333 251.354 44.6067 250.981 43.98V51.2H249.161V35.04H250.981V37.06ZM258.421 40.48C258.421 39.6533 258.254 38.9333 257.921 38.32C257.588 37.7067 257.134 37.24 256.561 36.92C256.001 36.6 255.381 36.44 254.701 36.44C254.034 36.44 253.414 36.6067 252.841 36.94C252.281 37.26 251.828 37.7333 251.481 38.36C251.148 38.9733 250.981 39.6867 250.981 40.5C250.981 41.3267 251.148 42.0533 251.481 42.68C251.828 43.2933 252.281 43.7667 252.841 44.1C253.414 44.42 254.034 44.58 254.701 44.58C255.381 44.58 256.001 44.42 256.561 44.1C257.134 43.7667 257.588 43.2933 257.921 42.68C258.254 42.0533 258.421 41.32 258.421 40.48ZM261.997 40.48C261.997 39.36 262.223 38.38 262.677 37.54C263.13 36.6867 263.75 36.0267 264.537 35.56C265.337 35.0933 266.223 34.86 267.197 34.86C268.157 34.86 268.99 35.0667 269.697 35.48C270.403 35.8933 270.93 36.4133 271.277 37.04V35.04H273.117V46H271.277V43.96C270.917 44.6 270.377 45.1333 269.657 45.56C268.95 45.9733 268.123 46.18 267.177 46.18C266.203 46.18 265.323 45.94 264.537 45.46C263.75 44.98 263.13 44.3067 262.677 43.44C262.223 42.5733 261.997 41.5867 261.997 40.48ZM271.277 40.5C271.277 39.6733 271.11 38.9533 270.777 38.34C270.443 37.7267 269.99 37.26 269.417 36.94C268.857 36.6067 268.237 36.44 267.557 36.44C266.877 36.44 266.257 36.6 265.697 36.92C265.137 37.24 264.69 37.7067 264.357 38.32C264.023 38.9333 263.857 39.6533 263.857 40.48C263.857 41.32 264.023 42.0533 264.357 42.68C264.69 43.2933 265.137 43.7667 265.697 44.1C266.257 44.42 266.877 44.58 267.557 44.58C268.237 44.58 268.857 44.42 269.417 44.1C269.99 43.7667 270.443 43.2933 270.777 42.68C271.11 42.0533 271.277 41.3267 271.277 40.5ZM281.532 34.84C282.866 34.84 283.946 35.2467 284.772 36.06C285.599 36.86 286.012 38.02 286.012 39.54V46H284.212V39.8C284.212 38.7067 283.939 37.8733 283.392 37.3C282.846 36.7133 282.099 36.42 281.152 36.42C280.192 36.42 279.426 36.72 278.852 37.32C278.292 37.92 278.012 38.7933 278.012 39.94V46H276.192V35.04H278.012V36.6C278.372 36.04 278.859 35.6067 279.472 35.3C280.099 34.9933 280.786 34.84 281.532 34.84ZM298.425 35.04L291.825 51.16H289.945L292.105 45.88L287.685 35.04H289.705L293.145 43.92L296.545 35.04H298.425Z" fill="#FDF9F9"/>
</svg>
