<svg width="420" height="420" viewBox="0 0 420 420" fill="none" xmlns="http://www.w3.org/2000/svg">
<g clip-path="url(#clip0_511_799)">
<path d="M0.0175 306.608H16.8175V244.615L40.1538 297.613C43.0325 304.22 46.97 306.556 54.6962 306.556C62.4225 306.556 66.2025 304.22 69.0812 297.613L92.4175 245.971V306.608H109.218V243.101C109.218 237.002 106.794 234.045 101.789 232.522C89.8275 228.76 81.795 232.006 78.1637 240.152L54.2325 294.052L31.0538 240.152C27.5713 232.015 19.3988 228.76 7.42875 232.522C2.42375 234.045 0 236.993 0 243.092V306.6L0.0175 306.608Z" fill="#7C7C7C"/>
<path d="M117.609 256.209H134.409V291.69C134.277 293.44 134.969 298.086 143.071 298.209C147.201 298.279 167.755 298.209 168.009 298.209V256.209H184.809C184.879 256.209 184.809 308.429 184.809 308.648C184.896 321.528 168.814 323.19 161.42 323.409H117.617V315.009C117.705 315.009 159.504 315.018 159.626 315.009C169.146 314.003 168.017 308.761 168.017 307.169V306.609H141.662C127.05 306.478 117.731 300.038 117.626 292.696C117.609 292.014 117.941 256.524 117.609 256.209Z" fill="#7C7C7C"/>
<path d="M193.209 306.609H235.27C240.783 306.609 246.138 305.454 250.39 303.459C257.478 300.204 260.4 295.803 260.4 290.019V278.049C260.4 265.134 244.388 264.609 235.2 264.609H218.4C211.794 264.609 210.788 260.619 210 256.209V247.809C210.788 244.449 212.258 239.934 218.076 239.409C224.84 239.409 260.391 239.409 260.391 239.409V231.009H220.439C213.833 231.009 193.191 231.796 193.191 247.809V258.195C193.191 265.545 199.649 271.53 213.666 273C215.241 273.105 216.816 273.21 218.383 273.21C218.383 273.21 234.71 272.895 235.183 273C244.633 273 243.583 280.35 243.583 281.4V289.8C243.583 290.955 243.32 298.2 235.086 298.2C234.456 298.2 193.183 298.2 193.183 298.2V306.609H193.209Z" fill="#7C7C7C"/>
<path d="M352.8 289.45C352.8 299.591 358.531 305.279 373.73 306.416C375.148 306.513 376.574 306.6 378 306.6H420V298.2H381.194C372.523 298.2 369.6 294.56 369.6 289.354V231H352.8V289.45Z" fill="#7C7C7C"/>
<path d="M268.66 289.809V247.809C268.66 238.884 273.035 232.724 285.425 231.009H291.305H321.466H326.06C338.45 232.724 344.26 238.875 344.26 247.809V289.651C344.26 296.888 342.379 300.773 336.245 303.293L349.265 315H330.365L321.002 306.6H310.004L291.314 306.705C288.61 306.705 285.757 306.329 282.625 305.471C273.227 302.908 268.66 297.973 268.66 289.809ZM285.46 289.809C286.317 293.895 289.599 298.209 295.435 298.209H311.745L302.4 289.809H321.431L325.972 294.026C325.972 294.026 327.6 292.696 327.6 289.809C327.6 286.921 327.46 247.809 327.46 247.809C326.602 244.011 322.752 239.409 317.065 239.409H295.444C288.89 239.409 285.469 244.204 285.469 248.666L285.46 289.809Z" fill="#7C7C7C"/>
<path d="M404.241 222.154C395.22 221.909 388.334 222.749 382.445 225.225C380.774 225.934 378.105 225.951 377.825 228.051C378.744 229.014 378.884 230.457 379.619 231.639C381.019 233.914 383.399 236.967 385.516 238.56C387.835 240.31 390.224 242.182 392.7 243.696C397.11 246.382 402.036 247.922 406.289 250.617C408.791 252.201 411.276 254.214 413.726 255.999C414.934 256.891 415.739 258.265 417.314 258.825C417.314 258.737 417.314 258.659 417.314 258.571C416.491 257.521 416.273 256.077 415.52 254.975C414.409 253.864 413.298 252.752 412.186 251.641C408.931 247.319 404.784 243.512 400.391 240.362C396.883 237.842 389.034 234.439 387.564 230.361C387.476 230.274 387.398 230.195 387.301 230.099C389.786 229.819 392.7 228.917 394.993 228.305C398.851 227.272 402.29 227.544 406.271 226.511C408.065 225.995 409.859 225.487 411.653 224.971C411.653 224.63 411.653 224.289 411.653 223.947C409.64 221.882 408.196 219.152 406.009 217.28C400.26 212.389 393.995 207.506 387.546 203.429C383.968 201.171 379.54 199.701 375.751 197.785C374.474 197.137 372.234 196.805 371.394 195.737C369.399 193.2 368.323 189.971 366.783 187.022C363.563 180.827 360.395 174.055 357.551 167.536C355.6 163.091 354.331 158.699 351.908 154.709C340.261 135.564 327.723 124.005 308.315 112.647C304.185 110.232 299.206 109.279 293.948 108.027C291.121 107.861 288.304 107.686 285.478 107.511C283.754 106.785 281.969 104.685 280.341 103.661C273.91 99.5925 257.408 90.755 252.648 102.375C249.638 109.707 257.145 116.865 259.831 120.584C261.713 123.191 264.128 126.114 265.475 129.054C266.359 130.979 266.516 132.912 267.269 134.951C269.133 139.974 272.081 145.696 274.496 150.342C275.713 152.696 277.06 155.164 278.6 157.264C279.545 158.55 281.164 159.119 281.426 161.114C279.843 163.327 279.755 166.766 278.863 169.584C274.855 182.227 276.369 197.934 282.196 207.279C283.981 210.149 288.199 216.309 293.991 213.946C299.058 211.881 297.929 205.485 299.373 199.841C299.696 198.564 299.495 197.627 300.143 196.77C300.143 196.857 300.143 196.936 300.143 197.032C301.683 200.104 303.214 203.192 304.763 206.264C308.184 211.767 314.248 217.516 319.375 221.401C322.035 223.414 324.135 226.896 327.583 228.069C327.583 227.981 327.583 227.902 327.583 227.806C327.495 227.806 327.416 227.806 327.32 227.806C326.655 226.765 325.605 226.336 324.756 225.496C322.753 223.527 320.513 221.086 318.859 218.829C314.186 212.485 310.056 205.537 306.294 198.31C304.5 194.854 302.934 191.056 301.42 187.539C300.834 186.182 300.843 184.135 299.626 183.435C297.964 186.007 295.531 188.09 294.245 191.126C292.198 195.982 291.926 201.915 291.174 208.049C290.719 208.206 290.92 208.101 290.658 208.302C287.088 207.436 285.828 203.77 284.498 200.611C281.138 192.631 280.516 179.786 283.474 170.607C284.235 168.227 287.691 160.746 286.3 158.55C285.635 156.354 283.43 155.085 282.205 153.414C280.674 151.349 279.16 148.619 278.101 146.23C275.354 140.009 272.746 132.772 269.85 126.481C268.468 123.471 266.131 120.435 264.206 117.766C262.08 114.809 259.691 112.63 258.046 109.051C257.46 107.782 256.664 105.744 257.53 104.431C257.81 103.547 258.195 103.18 259.07 102.891C260.558 101.736 264.696 103.267 266.254 103.915C270.366 105.621 273.796 107.249 277.279 109.559C278.95 110.67 280.639 112.814 282.66 113.409C283.43 113.409 284.2 113.409 284.97 113.409C288.584 114.24 292.626 113.671 295.995 114.695C301.963 116.506 307.3 119.324 312.148 122.386C326.935 131.722 339.019 145.005 347.288 160.86C348.618 163.415 349.195 165.847 350.359 168.551C352.721 174.011 355.705 179.629 358.05 184.966C360.395 190.295 362.688 195.667 366.004 200.104C367.754 202.431 374.491 203.682 377.545 204.977C379.689 205.887 383.206 206.824 385.236 208.049C389.121 210.394 392.884 213.185 396.515 215.74C398.37 217.026 403.961 219.835 404.241 222.154Z" fill="#7C7C7C"/>
<path d="M289.608 124.452C287.726 124.417 286.396 124.653 284.988 124.968C284.988 125.055 284.988 125.134 284.988 125.23C285.075 125.23 285.154 125.23 285.25 125.23C286.151 127.068 287.726 128.267 288.838 129.85C289.695 131.644 290.544 133.438 291.401 135.232C291.489 135.144 291.568 135.065 291.655 134.978C293.239 133.858 293.974 132.073 293.965 129.334C293.326 128.66 293.23 127.82 292.679 127.024C291.944 125.948 290.526 125.344 289.608 124.452Z" fill="#7C7C7C"/>
</g>
<defs>
<clipPath id="clip0_511_799">
<rect width="420" height="420" fill="white"/>
</clipPath>
</defs>
</svg>
