<svg width="240" height="240" viewBox="0 0 240 240" fill="none" xmlns="http://www.w3.org/2000/svg">
<path d="M85.4375 33.4531C80.5495 33.4531 76.016 34.5474 72 36.8594C59.449 44.1057 54.6717 61.7644 57.2031 83.75C36.9016 92.5507 24 105.509 24 120C24 134.491 36.9016 147.449 57.2031 156.25C54.673 178.235 59.449 195.894 72 203.141C76.008 205.453 80.5415 206.547 85.4375 206.547C95.8585 206.547 107.903 201.317 120 192.344C132.098 201.317 144.157 206.547 154.578 206.547C159.466 206.547 164 205.453 168.016 203.141C180.567 195.894 185.344 178.235 182.812 156.25C203.106 147.449 216 134.488 216 120C216 105.509 203.098 92.5507 182.797 83.75C185.327 61.7652 180.551 44.1057 168 36.8594C163.992 34.5394 159.458 33.4531 154.562 33.4531C144.141 33.4531 132.097 38.6833 120 47.6562C107.902 38.6833 95.8549 33.4531 85.4375 33.4531ZM85.4375 47.4531C91.6906 47.4531 99.9597 50.778 108.938 56.9375C103.659 61.919 98.4892 67.5835 93.5156 73.8906C85.4486 75.0473 77.8428 76.7335 70.7969 78.8438C70.759 78.3551 70.6694 77.8424 70.6406 77.3594C69.7846 63.1194 72.912 52.5044 79 48.9844C80.8 47.9444 82.9015 47.4531 85.4375 47.4531ZM154.562 47.4531C157.091 47.4531 159.2 47.9444 161 48.9844C167.088 52.4964 170.215 63.1194 169.359 77.3594C169.33 77.8424 169.241 78.3551 169.203 78.8438C162.153 76.7322 154.541 75.0474 146.469 73.8906C141.495 67.5843 136.341 61.9184 131.062 56.9375C140.04 50.779 148.313 47.4531 154.562 47.4531ZM120 65.8281C122.169 67.802 124.322 69.8883 126.5 72.1719C124.342 72.0994 122.195 72 120 72C117.81 72 115.669 72.0997 113.516 72.1719C115.692 69.8906 117.833 67.8001 120 65.8281ZM120 86C126.63 86 132.913 86.3706 138.875 87.0156C142.511 91.9576 146.094 97.1825 149.453 103C152.673 108.576 155.52 114.284 158.031 120C155.519 125.72 152.675 131.436 149.453 137.016C146.105 142.816 142.53 148.008 138.906 152.938C132.734 153.613 126.402 154 120 154C113.37 154 107.087 153.629 101.125 152.984C97.4891 148.042 93.9058 142.833 90.5469 137.016C87.3255 131.436 84.4815 125.72 81.9688 120C84.4798 114.284 87.3274 108.576 90.5469 103C93.8967 97.1993 97.4689 91.9924 101.094 87.0625C107.266 86.3871 113.598 86 120 86ZM157.969 90.3281C161.143 91.0944 164.194 91.9217 167.062 92.8438C166.413 95.7802 165.618 98.7729 164.719 101.797C163.689 99.8651 162.691 97.9272 161.578 96C160.433 94.0176 159.162 92.2365 157.969 90.3281ZM82.0156 90.3438C80.8264 92.2462 79.5632 94.0239 78.4219 96C77.3093 97.9276 76.3104 99.8649 75.2812 101.797C74.3801 98.7666 73.5724 95.7704 72.9219 92.8281C75.843 91.9052 78.8866 91.0879 82.0156 90.3438ZM59.75 97.9688C61.4356 105.086 63.7738 112.463 66.7812 119.984C63.7802 127.488 61.4518 134.852 59.7656 141.953C45.8339 135.226 38 126.851 38 120C38 112.968 45.615 104.954 58.375 98.5781C58.8105 98.3602 59.305 98.1815 59.75 97.9688ZM180.234 98.0469C194.166 104.774 202 113.149 202 120C202 127.032 194.385 135.046 181.625 141.422C181.189 141.64 180.695 141.818 180.25 142.031C178.563 134.91 176.244 127.526 173.234 120C176.232 112.503 178.55 105.142 180.234 98.0469ZM120 104C111.16 104 104 111.16 104 120C104 128.84 111.16 136 120 136C128.84 136 136 128.84 136 120C136 111.16 128.84 104 120 104ZM75.2812 138.203C76.311 140.136 77.3242 142.072 78.4375 144C79.5813 145.981 80.8393 147.765 82.0312 149.672C78.8573 148.906 75.806 148.078 72.9375 147.156C73.5879 144.218 74.3813 141.229 75.2812 138.203ZM164.719 138.219C165.619 141.246 166.428 144.232 167.078 147.172C164.157 148.095 161.113 148.912 157.984 149.656C159.174 147.754 160.437 145.976 161.578 144C162.688 142.076 163.692 140.147 164.719 138.219ZM70.7969 161.156C77.8472 163.268 85.4586 164.953 93.5312 166.109C98.5063 172.419 103.657 178.095 108.938 183.078C99.9603 189.236 91.6902 192.562 85.4375 192.562C82.9095 192.562 80.8 192.056 79 191.016C72.912 187.504 69.7846 176.896 70.6406 162.656C70.6699 162.168 70.7584 161.65 70.7969 161.156ZM169.203 161.156C169.241 161.65 169.33 162.168 169.359 162.656C170.215 176.896 167.088 187.496 161 191.016C159.2 192.056 157.099 192.563 154.562 192.562C148.31 192.562 140.04 189.237 131.062 183.078C136.344 178.095 141.508 172.42 146.484 166.109C154.551 164.953 162.157 163.266 169.203 161.156ZM113.5 167.828C115.658 167.901 117.805 168 120 168C122.195 168 124.342 167.901 126.5 167.828C124.322 170.112 122.169 172.198 120 174.172C117.831 172.198 115.678 170.112 113.5 167.828Z" fill="#7C7C7C"/>
</svg>
