<svg width="323" height="323" viewBox="0 0 323 323" fill="none" xmlns="http://www.w3.org/2000/svg">
<path d="M161.5 12.9199C156.882 12.9199 152.264 14.0807 148.151 16.4023L39.3404 77.5452C31.013 82.2135 25.84 90.9698 25.84 100.357V222.643C25.84 232.03 31.013 240.786 39.3404 245.455L148.151 306.598C152.264 308.919 156.882 310.08 161.5 310.08C166.118 310.08 170.736 308.919 174.849 306.598L283.66 245.48C291.987 240.786 297.16 232.03 297.16 222.643V100.357C297.16 90.9698 291.987 82.2135 283.66 77.5452L174.849 16.4023C170.736 14.0807 166.118 12.9199 161.5 12.9199ZM161.5 83.9799C185.927 83.9799 208.512 95.3102 223.148 114.589L194.835 130.992C186.331 121.68 174.243 116.28 161.5 116.28C136.568 116.28 116.28 136.568 116.28 161.5C116.28 186.431 136.568 206.72 161.5 206.72C174.243 206.72 186.331 201.32 194.835 192.008L223.148 208.411C208.512 227.69 185.927 239.02 161.5 239.02C118.753 239.02 83.98 204.247 83.98 161.5C83.98 118.753 118.753 83.9799 161.5 83.9799ZM226.1 129.2H239.02V142.12H251.94V129.2H264.86V142.12H277.78V155.04H264.86V167.96H277.78V180.88H264.86V193.8H251.94V180.88H239.02V193.8H226.1V180.88H213.18V167.96H226.1V155.04H213.18V142.12H226.1V129.2ZM239.02 155.04V167.96H251.94V155.04H239.02Z" fill="#7C7C7C"/>
</svg>
