<svg width="293" height="293" viewBox="0 0 293 293" fill="none" xmlns="http://www.w3.org/2000/svg">
<path d="M146.787 30.521C137.295 30.5515 130.715 31.3877 122.761 32.7612C99.2721 36.851 94.9931 45.4395 94.9931 61.2676V85.4585H149.931V97.6668H92.9054H66.3523C50.2617 97.6668 36.1794 105.248 31.7173 123.42C26.6752 144.278 26.4494 157.341 31.7173 179.121C35.7155 195.364 44.5238 207.542 60.6205 207.542H82.7908V176.386C82.7908 158.281 99.1866 140.396 117.975 140.396H162.145C177.546 140.396 192.666 129.03 192.666 113.678V61.2676C192.666 46.3796 181.929 35.2456 166.918 32.749C167.291 32.7123 156.2 30.4843 146.787 30.521ZM116.364 54.9376C121.375 54.9376 125.52 59.0701 125.52 64.1061C125.52 69.1909 121.375 73.2501 116.364 73.2501C111.255 73.2501 107.208 69.197 107.208 64.1061C107.208 59.0885 111.255 54.9376 116.364 54.9376Z" fill="#7C7C7C"/>
<path d="M140.872 262.479C150.364 262.448 156.944 261.612 164.898 260.239C188.387 256.149 192.666 247.56 192.666 231.732V207.541H137.728V195.333H194.76H221.313C237.403 195.333 251.486 187.752 255.948 169.58C260.99 148.722 261.216 135.659 255.948 113.879C251.943 97.6358 243.135 85.458 227.038 85.458H204.868V116.614C204.868 134.719 188.472 152.604 169.684 152.604H125.514C110.113 152.604 94.993 163.97 94.993 179.322V231.732C94.993 246.62 105.73 257.754 120.74 260.251C120.368 260.287 131.459 262.515 140.872 262.479ZM171.301 238.062C166.29 238.062 162.145 233.93 162.145 228.894C162.145 223.809 166.29 219.75 171.301 219.75C176.41 219.75 180.457 223.803 180.457 228.894C180.457 233.911 176.404 238.062 171.301 238.062Z" fill="#7C7C7C"/>
</svg>
